<svg xmlns="http://www.w3.org/2000/svg" width="202" height="248" fill="none" viewBox="0 0 202 248">
<!-- SVG created with Arrow, by QuiverAI (https://quiver.ai) -->
  <path d="m1.5 245.7c4.78-16.89 11.51-33.43 20.44-54.88 1.99-4.87 4.58-9.81 6.88-14.97-0.71 1.5-1.68 2.61-2.61 2.92 0.81-1.44 1.14-3.06 1.3-4.74l-0.78 1.69c-0.01-8.22-4.52-15.62-10.11-20.51 4.35 2.99 7.69 7.29 10.18 11.99-0.09-0.99-0.17-2-0.23-3-5.56-8.26-13.03-15.85-21.48-16.08l-1.02-0.31c6.26-0.94 14.06 4.17 21.61 11.32-1.76-10.9-1.73-22 3.01-35.6-4.47 14.25-1.97 27.37 0.3 36.58l1.02-0.32c0.7 0.03 1.64-0.93 1.36-3.94-1.31-10.65-2.39-11.69 0.65-20.66-1.87 8.78 1.86 13.98 2.24 22.23l5.58-8.27c-1.45-13.19-2.99-19.42-1.73-28.74 0.99-7.88 3.61-16.31 8.21-26.27l-0.65 0.48c-9.25 13.36-15.45 29.47-16.2 49.51-0.18 5.72 0.15 11.18 0.64 16.15l0.4-0.61c-0.5-4.52-0.79-9.35-0.6-14.64 0.57-17.66 5.77-33.78 15.29-48.88 2.08-3.33 3.41-6.04 4.7-8.7l0.24-0.14c-6.15 11.55-8.04 22.18-7.12 31.42 0.69 6.38 3.09 9.04 2.5 16.8l0.79-0.27c1.78-8.69-0.22-12.47-0.73-20.39-0.49-7.62 1.58-16.89 7.5-28.87 3.11-6.27 6.74-13.61 12.39-21.05-7.17 9.53-10.55 18.93-13.68 26.17 3.52-8.09 7.2-14.94 11.19-21 3.09-5.02 6.3-10 11.52-16.62-7.44 11.41-11.48 24.52-11.28 34.38 0.26 6.95 0.99 10.99 0.36 18.71l0.53-0.85c1.61-9.42 1.1-13.64 2.58-21.77 3.58-18.2 14.69-35.87 37.97-55.09-4.54 5.14-10.39 15.04-14.27 28.32-3.23 10.13-4.31 17.67-4.66 25.16l1.85-10.07c1.51-7.87 3.58-14.58 6.26-20.65 5.48-13.34 9.41-21.36 24.67-32.34-12.85 8.45-22 27.71-22.27 49.03 1.89-13.09 8.87-30.59 20.84-43.11 7.07-7.47 13.45-12.95 21.89-16.73 9.31-4.26 19.76-6.43 32.71-6.14 8.63 0.5 18.09 2.02 25.87 6.72l2.42 3.17c-5.85-7.19-14.58-2.39-21.06 7.91-6.6 10.02-9.67 22.68-14.04 31.4-8.66 17.2-21.93 28.35-38.14 34.81-8.9 3.59-20.22 1.66-33.54 10.77 10.47-7.9 20.22-4.91 32.5-7.38 9.03-2.02 17.19-6.66 22.62-10.02 14.53-9.72 22.37-25.58 28.7-42.57l-0.54 1.17c-6.31 16.87-14.25 32.31-30.57 42.59-4.79 4.86-11.01 10.28-13.82 16.82-7.05 12.99-13.04 21.61-25.38 30.19l9.56 0.23-5.43 3.69-2.82 2.24-0.8 0.28c0.57-1.57 1.31-3.21 2.2-5.12-2 3.7-3.18 6.47-6.99 9.5-2 1.6-3.46 3.58-3.81 5.69 1.58-1.61 2.63-3.27 3.45-4.93-9.94 14.49-26.88 27.73-44.8 33.7-3.81 1.27-8.53 2.08-13.45 3.41-1.55 0.46-3.59 1.05-3.01 1.62 0.47 0.64 2.43 0.5 3.82 0.32 6.57-0.96 13.57 1.34 23.31-1.61 3.42-1.15 5.98-2.94 8.5-4.4-3.21 3.5-8.41 6.34-14.25 8.22-8.82 2.7-15.01 0.52-20.76 1.61-3.69 0.72-5.73 1.97-7.41 5.35 3.33-2.71 5.78-2.68 8.61-2.27 6.54 1 11.76 3.59 13.02 11.87l-0.2-0.27c-1.33-7.08-7.5-10.25-13.43-10.58-4.09-0.17-7.29 0.98-9.97 5.66-6.97 12.92-12.03 22.74-15.14 34.21-1.57 5.88-3.74 8.62-7.56 11.78-3.22 2.66-5.72 5.68-7.72 8.45l-0.12-0.88zm2.62-4.6c4.71-6.27 9.77-10.04 12.27-19.02 0.55-1.98 1.36-3.89 2.17-5.81-2.84 8.55-4.44 15.63-9.54 20.48-1.91 1.72-3.57 3.03-4.9 4.35zm24.62-45.62c4.22-10.42 6.19-13.76 7.58-15.73l1.73-0.73 0.78-0.8-2.82 0.72c3.41-7.34 13.96-28.62 21.9-42.83 12.21-22.19 25.62-43.7 46.78-67.96 5.53-6.42 8.42-10.3 9.23-12.69-11.73 11.74-25.61 29.74-35.14 41.31-13.68 19.19-25.9 39.18-36.72 60.92-6.05 11.84-10.85 24.43-14.94 34.57l1.62 3.22zm-3.66-11.65c0.98-5.64 0.63-13.56-7.9-17.13 5.03 1.25 8.04 4.75 9.35 10.15l-0.65 4.05-0.8 2.93zm19.33-17.23c5.28-3.9 10.56-6.17 17.85-7.8 2.75-0.59 3.93-0.91 5.66-1.36-6.8 1.21-14.5 2.46-21.83 7.56l-1.68 1.6zm-0.3-1.84c10.26-12.66 20.66-15.78 32.25-18.43 8.82-1.69 17.86-5.13 25.77-11.39-7.84 5.16-15.99 8.86-25.88 10.4-10.06 1.99-19.68 6.84-28.24 16.02l-3.9 3.4zm9.07-16.4c7.06-10.81 17.06-15.23 33.47-19.2 15.34-3.71 30.21-11.04 42.42-26.1-8.74 10.06-22.94 17.8-39.44 20.5-13.52 2.66-26.62 8.19-35.18 20.34l-1.27 4.46zm8.13-17.6c9-10.05 19.1-14.31 27.66-16.68-8.91 2.51-19.36 8.12-25.41 14.38l-2.25 2.3zm5.81-7.91c10.75-11.87 21.31-15.34 30.31-17.78-11.74 2.69-20.42 7.33-27.94 14.8l-2.37 2.98zm4.07-7.64c10.03-9.24 18.26-11.16 26.96-12.94l14.68-2.24c-12.75 2.24-26.7 4.12-38.04 14.43l-3.6 0.75zm13.94-14.03c10.34-13.92 21.59-16.57 32.55-20.23 15.93-5.4 32.21-14.58 47.28-31.89-10.85 11.51-27.2 20.07-44.14 24.22-10.06 2.54-23.04 7.95-33.38 18.47l-2.31 9.43zm10.98-18.07c10.82-10.06 21.71-13.86 40.6-18.36-14.42 3.57-29.1 8.21-39.44 16.99l-1.16 1.37zm17.16-23.06c8.22-5.05 15.92-6.93 23-7.92 10.89-1.54 22.55-6.88 32.36-15.95-6.8 9.92-20.02 15.82-30.91 17.09-8.37 1.13-15.44 3.3-23.5 8l-0.95-1.22zm25.22-2.92c9.42-2.48 19.13-7.2 28.06-17.72l1.8-4.73c-8.44 10.92-19.62 18.59-29.86 22.45zm-1.75-19.97c7.84-4.22 12.66-3.61 19.58-5.95 6.99-2.47 12.76-6.16 18.21-12.71-4.96 7.9-12.15 12.75-19.77 14.57-6.18 1.49-11.75 2.34-17.44 5.71l-0.58-1.62zm-35.56 22.5c6.26-23.51 22.27-42.43 44.43-50.98-14.12 6.57-32.2 19.53-43.49 47.67l-0.94 3.31zm36.5-27.7c7.68-13.91 17.13-24.57 27.47-28.01-11.03 2.82-19.71 13.12-27.47 28.01zm5.95-4.53c8.49-12.29 18.84-23.54 31.18-23.99-7.59-0.87-16.15 3.61-28.8 21.43l-2.38 2.56zm-23.82 22.17 13.55-26.05-9 21.2-7 9.01 2.45-4.16zm16.27-12.95 31.63-20.97-30 20.47-1.63 0.5z" fill="#000"/>
</svg>